<svg width="264" height="44" viewBox="0 0 264 44" fill="none" xmlns="http://www.w3.org/2000/svg">
<path d="M5.96861 12.144C5.15795 12.144 4.39528 12 3.68061 11.712C2.97661 11.4133 2.36328 11.0027 1.84061 10.48C1.31795 9.95733 0.90728 9.344 0.608613 8.64C0.320613 7.92533 0.176613 7.16267 0.176613 6.352C0.176613 5.53067 0.320613 4.77333 0.608613 4.08C0.90728 3.376 1.31795 2.76267 1.84061 2.24C2.36328 1.71733 2.97661 1.312 3.68061 1.024C4.38461 0.725333 5.14728 0.575999 5.96861 0.575999C6.78995 0.575999 7.55261 0.725333 8.25661 1.024C8.96061 1.312 9.56861 1.71733 10.0806 2.24C10.6033 2.76267 11.0086 3.376 11.2966 4.08C11.5953 4.77333 11.7446 5.53067 11.7446 6.352C11.7446 7.16267 11.5953 7.92533 11.2966 8.64C11.0086 9.344 10.6033 9.95733 10.0806 10.48C9.55795 11.0027 8.94461 11.4133 8.24061 11.712C7.54728 12 6.78995 12.144 5.96861 12.144ZM6.17661 9.808C5.14195 9.808 4.32595 9.488 3.72861 8.848C3.14195 8.208 2.84861 7.36533 2.84861 6.32C2.84861 5.264 3.14195 4.432 3.72861 3.824C4.32595 3.216 5.14195 2.912 6.17661 2.912C6.60328 2.912 7.02461 2.98667 7.44061 3.136C7.85661 3.28533 8.19795 3.49333 8.46461 3.76L8.08061 4.592C7.80328 4.336 7.50461 4.14933 7.18461 4.032C6.86461 3.91467 6.54461 3.856 6.22461 3.856C5.53128 3.856 4.98728 4.07467 4.59261 4.512C4.19795 4.93867 4.00061 5.54667 4.00061 6.336C4.00061 7.104 4.19795 7.71733 4.59261 8.176C4.98728 8.624 5.53128 8.848 6.22461 8.848C6.54461 8.848 6.86461 8.78933 7.18461 8.672C7.50461 8.55467 7.80328 8.368 8.08061 8.112L8.46461 8.96C8.19795 9.216 7.85128 9.424 7.42461 9.584C7.00861 9.73333 6.59261 9.808 6.17661 9.808ZM5.96861 11.44C6.68328 11.44 7.34461 11.312 7.95261 11.056C8.57128 10.8 9.10461 10.4427 9.55261 9.984C10.0113 9.51467 10.3686 8.976 10.6246 8.368C10.8806 7.74933 11.0086 7.07733 11.0086 6.352C11.0086 5.62667 10.8806 4.96 10.6246 4.352C10.3686 3.73333 10.0113 3.19467 9.55261 2.736C9.10461 2.27733 8.57128 1.92 7.95261 1.664C7.34461 1.408 6.68328 1.28 5.96861 1.28C5.24328 1.28 4.57128 1.408 3.95261 1.664C3.34461 1.92 2.81128 2.27733 2.35261 2.736C1.90461 3.19467 1.55261 3.73333 1.29661 4.352C1.04061 4.96 0.912613 5.62667 0.912613 6.352C0.912613 7.07733 1.04061 7.74933 1.29661 8.368C1.55261 8.976 1.90461 9.51467 2.35261 9.984C2.81128 10.4427 3.34995 10.8 3.96861 11.056C4.58728 11.312 5.25395 11.44 5.96861 11.44ZM18.4674 12V0.719999H19.7954V5.84H19.8274L25.2354 0.719999H26.9314L20.7074 6.544L20.7234 5.872L27.3794 12H25.6354L19.8274 6.688H19.7954V12H18.4674ZM28.664 12V3.968H29.96V12H28.664ZM28.504 2.144V0.688H30.104V2.144H28.504ZM36.0525 12.144C35.2632 12.144 34.5752 11.9733 33.9885 11.632C33.4125 11.2907 32.9645 10.8053 32.6445 10.176C32.3352 9.54667 32.1805 8.8 32.1805 7.936C32.1805 7.06133 32.3405 6.32 32.6605 5.712C32.9805 5.09333 33.4285 4.624 34.0045 4.304C34.5912 3.984 35.2738 3.824 36.0525 3.824C36.5645 3.824 37.0605 3.91467 37.5405 4.096C38.0312 4.27733 38.4365 4.53333 38.7565 4.864L38.2925 5.792C37.9725 5.48267 37.6205 5.25333 37.2365 5.104C36.8632 4.95467 36.4952 4.88 36.1325 4.88C35.3005 4.88 34.6552 5.14133 34.1965 5.664C33.7378 6.18667 33.5085 6.94933 33.5085 7.952C33.5085 8.944 33.7378 9.712 34.1965 10.256C34.6552 10.8 35.3005 11.072 36.1325 11.072C36.4845 11.072 36.8472 11.0027 37.2205 10.864C37.6045 10.7253 37.9618 10.496 38.2925 10.176L38.7565 11.088C38.4258 11.4293 38.0152 11.6907 37.5245 11.872C37.0338 12.0533 36.5432 12.144 36.0525 12.144ZM40.7984 12V0.223999H42.0944V7.536H42.1264L45.8544 3.968H47.4864L43.0864 8.16L43.1184 7.504L47.9024 12H46.2224L42.1264 8.224H42.0944V12H40.7984ZM52.0696 12.144C51.3656 12.144 50.7469 11.9787 50.2136 11.648C49.6803 11.3067 49.2643 10.8267 48.9656 10.208C48.6776 9.58933 48.5336 8.848 48.5336 7.984C48.5336 7.10933 48.6776 6.36267 48.9656 5.744C49.2643 5.12533 49.6803 4.65067 50.2136 4.32C50.7469 3.98933 51.3656 3.824 52.0696 3.824C52.7949 3.824 53.4189 4.00533 53.9416 4.368C54.4749 4.73067 54.8323 5.22133 55.0136 5.84H54.8216V0.223999H56.1176V12H54.8376V10.08H55.0136C54.8429 10.72 54.4909 11.2267 53.9576 11.6C53.4243 11.9627 52.7949 12.144 52.0696 12.144ZM52.3416 11.088C53.0989 11.088 53.7069 10.8267 54.1656 10.304C54.6243 9.77067 54.8536 8.99733 54.8536 7.984C54.8536 6.96 54.6243 6.18667 54.1656 5.664C53.7069 5.13067 53.0989 4.864 52.3416 4.864C51.5843 4.864 50.9763 5.13067 50.5176 5.664C50.0696 6.18667 49.8456 6.96 49.8456 7.984C49.8456 8.99733 50.0696 9.77067 50.5176 10.304C50.9763 10.8267 51.5843 11.088 52.3416 11.088ZM58.7914 12V5.904C58.7914 5.584 58.7807 5.25867 58.7594 4.928C58.7487 4.59733 58.7274 4.27733 58.6954 3.968H59.9434L60.1034 5.92L59.8794 5.936C59.986 5.456 60.1727 5.06133 60.4394 4.752C60.706 4.44267 61.0207 4.21333 61.3834 4.064C61.746 3.904 62.1247 3.824 62.5194 3.824C62.6794 3.824 62.818 3.82933 62.9354 3.84C63.0634 3.85067 63.1807 3.87733 63.2874 3.92L63.2714 5.072C63.1114 5.01867 62.962 4.98667 62.8234 4.976C62.6954 4.95467 62.546 4.944 62.3754 4.944C61.906 4.944 61.4954 5.056 61.1434 5.28C60.802 5.504 60.5407 5.792 60.3594 6.144C60.1887 6.496 60.1034 6.86933 60.1034 7.264V12H58.7914ZM67.6679 12.144C66.7185 12.144 65.9985 11.8827 65.5079 11.36C65.0279 10.8373 64.7879 10.0373 64.7879 8.96V3.968H66.0839V8.928C66.0839 9.664 66.2332 10.208 66.5319 10.56C66.8305 10.9013 67.2945 11.072 67.9239 11.072C68.6279 11.072 69.1932 10.8427 69.6199 10.384C70.0465 9.92533 70.2599 9.312 70.2599 8.544V3.968H71.5559V12H70.2919V10.192H70.4999C70.2759 10.8107 69.9132 11.2907 69.4119 11.632C68.9212 11.9733 68.3399 12.144 67.6679 12.144ZM74.2702 12V5.824C74.2702 5.52533 74.2542 5.22133 74.2222 4.912C74.2009 4.592 74.1742 4.27733 74.1422 3.968H75.3902L75.5502 5.728H75.3582C75.5716 5.12 75.9076 4.65067 76.3662 4.32C76.8356 3.98933 77.4009 3.824 78.0622 3.824C78.7342 3.824 79.2782 3.984 79.6942 4.304C80.1209 4.624 80.4089 5.12 80.5582 5.792H80.3182C80.5209 5.184 80.8782 4.704 81.3902 4.352C81.9022 4 82.4996 3.824 83.1822 3.824C84.0676 3.824 84.7342 4.08 85.1822 4.592C85.6302 5.09333 85.8542 5.888 85.8542 6.976V12H84.5582V7.056C84.5582 6.29867 84.4249 5.74933 84.1582 5.408C83.8916 5.056 83.4649 4.88 82.8782 4.88C82.2062 4.88 81.6729 5.11467 81.2782 5.584C80.8942 6.04267 80.7022 6.66133 80.7022 7.44V12H79.4062V7.056C79.4062 6.29867 79.2729 5.74933 79.0062 5.408C78.7396 5.056 78.3129 4.88 77.7262 4.88C77.0542 4.88 76.5262 5.11467 76.1422 5.584C75.7582 6.04267 75.5662 6.66133 75.5662 7.44V12H74.2702ZM95.769 12V1.84H91.785V0.719999H101.065V1.84H97.097V12H95.769ZM105.094 12.144C103.836 12.144 102.844 11.7813 102.118 11.056C101.393 10.32 101.03 9.30133 101.03 8C101.03 7.15733 101.19 6.42667 101.51 5.808C101.83 5.17867 102.278 4.69333 102.854 4.352C103.43 4 104.092 3.824 104.838 3.824C105.574 3.824 106.193 3.97867 106.694 4.288C107.196 4.59733 107.58 5.04 107.846 5.616C108.113 6.18133 108.246 6.85333 108.246 7.632V8.112H102.022V7.296H107.398L107.126 7.504C107.126 6.65067 106.934 5.984 106.55 5.504C106.166 5.024 105.596 4.784 104.838 4.784C104.038 4.784 103.414 5.06667 102.966 5.632C102.518 6.18667 102.294 6.93867 102.294 7.888V8.032C102.294 9.03467 102.54 9.79733 103.03 10.32C103.532 10.832 104.23 11.088 105.126 11.088C105.606 11.088 106.054 11.0187 106.47 10.88C106.897 10.7307 107.302 10.4907 107.686 10.16L108.134 11.072C107.782 11.4133 107.334 11.68 106.79 11.872C106.257 12.0533 105.692 12.144 105.094 12.144ZM113.806 12.144C113.016 12.144 112.328 11.9733 111.742 11.632C111.166 11.2907 110.718 10.8053 110.398 10.176C110.088 9.54667 109.934 8.8 109.934 7.936C109.934 7.06133 110.094 6.32 110.414 5.712C110.734 5.09333 111.182 4.624 111.758 4.304C112.344 3.984 113.027 3.824 113.806 3.824C114.318 3.824 114.814 3.91467 115.294 4.096C115.784 4.27733 116.19 4.53333 116.51 4.864L116.046 5.792C115.726 5.48267 115.374 5.25333 114.99 5.104C114.616 4.95467 114.248 4.88 113.886 4.88C113.054 4.88 112.408 5.14133 111.95 5.664C111.491 6.18667 111.262 6.94933 111.262 7.952C111.262 8.944 111.491 9.712 111.95 10.256C112.408 10.8 113.054 11.072 113.886 11.072C114.238 11.072 114.6 11.0027 114.974 10.864C115.358 10.7253 115.715 10.496 116.046 10.176L116.51 11.088C116.179 11.4293 115.768 11.6907 115.278 11.872C114.787 12.0533 114.296 12.144 113.806 12.144ZM118.551 12V0.223999H119.847V5.744H119.639C119.863 5.11467 120.237 4.64 120.759 4.32C121.293 3.98933 121.906 3.824 122.599 3.824C123.559 3.824 124.274 4.08533 124.743 4.608C125.213 5.12 125.447 5.89867 125.447 6.944V12H124.151V7.024C124.151 6.27733 124.002 5.73333 123.703 5.392C123.415 5.05067 122.946 4.88 122.295 4.88C121.549 4.88 120.951 5.10933 120.503 5.568C120.066 6.02667 119.847 6.62933 119.847 7.376V12H118.551ZM128.126 12V5.824C128.126 5.52533 128.11 5.22133 128.078 4.912C128.057 4.592 128.03 4.27733 127.998 3.968H129.246L129.406 5.728H129.214C129.449 5.10933 129.822 4.64 130.334 4.32C130.857 3.98933 131.46 3.824 132.142 3.824C133.092 3.824 133.806 4.08 134.286 4.592C134.777 5.09333 135.022 5.888 135.022 6.976V12H133.726V7.056C133.726 6.29867 133.572 5.74933 133.262 5.408C132.964 5.056 132.494 4.88 131.854 4.88C131.108 4.88 130.516 5.10933 130.078 5.568C129.641 6.02667 129.422 6.64 129.422 7.408V12H128.126ZM140.997 12.144C140.229 12.144 139.557 11.9787 138.981 11.648C138.416 11.3067 137.979 10.8267 137.669 10.208C137.36 9.57867 137.205 8.83733 137.205 7.984C137.205 7.12 137.36 6.37867 137.669 5.76C137.979 5.14133 138.416 4.66667 138.981 4.336C139.557 3.99467 140.229 3.824 140.997 3.824C141.776 3.824 142.448 3.99467 143.013 4.336C143.589 4.66667 144.032 5.14133 144.341 5.76C144.661 6.37867 144.821 7.12 144.821 7.984C144.821 8.83733 144.661 9.57867 144.341 10.208C144.032 10.8267 143.589 11.3067 143.013 11.648C142.448 11.9787 141.776 12.144 140.997 12.144ZM140.997 11.088C141.765 11.088 142.373 10.8267 142.821 10.304C143.269 9.77067 143.493 8.99733 143.493 7.984C143.493 6.96 143.264 6.18667 142.805 5.664C142.357 5.13067 141.755 4.864 140.997 4.864C140.24 4.864 139.637 5.13067 139.189 5.664C138.741 6.18667 138.517 6.96 138.517 7.984C138.517 8.99733 138.741 9.77067 139.189 10.304C139.637 10.8267 140.24 11.088 140.997 11.088ZM147.042 12V0.223999H148.338V12H147.042ZM154.351 12.144C153.583 12.144 152.911 11.9787 152.335 11.648C151.769 11.3067 151.332 10.8267 151.023 10.208C150.713 9.57867 150.559 8.83733 150.559 7.984C150.559 7.12 150.713 6.37867 151.023 5.76C151.332 5.14133 151.769 4.66667 152.335 4.336C152.911 3.99467 153.583 3.824 154.351 3.824C155.129 3.824 155.801 3.99467 156.367 4.336C156.943 4.66667 157.385 5.14133 157.695 5.76C158.015 6.37867 158.175 7.12 158.175 7.984C158.175 8.83733 158.015 9.57867 157.695 10.208C157.385 10.8267 156.943 11.3067 156.367 11.648C155.801 11.9787 155.129 12.144 154.351 12.144ZM154.351 11.088C155.119 11.088 155.727 10.8267 156.175 10.304C156.623 9.77067 156.847 8.99733 156.847 7.984C156.847 6.96 156.617 6.18667 156.159 5.664C155.711 5.13067 155.108 4.864 154.351 4.864C153.593 4.864 152.991 5.13067 152.543 5.664C152.095 6.18667 151.871 6.96 151.871 7.984C151.871 8.99733 152.095 9.77067 152.543 10.304C152.991 10.8267 153.593 11.088 154.351 11.088ZM163.931 15.568C163.238 15.568 162.598 15.4827 162.011 15.312C161.425 15.1413 160.897 14.88 160.427 14.528L160.811 13.552C161.142 13.7867 161.467 13.9733 161.787 14.112C162.107 14.2507 162.438 14.352 162.779 14.416C163.121 14.4907 163.483 14.528 163.867 14.528C164.657 14.528 165.254 14.32 165.659 13.904C166.065 13.488 166.267 12.896 166.267 12.128V9.776H166.427C166.257 10.4053 165.905 10.9067 165.371 11.28C164.838 11.6427 164.214 11.824 163.499 11.824C162.763 11.824 162.123 11.664 161.579 11.344C161.046 11.0133 160.63 10.5493 160.331 9.952C160.043 9.344 159.899 8.62933 159.899 7.808C159.899 6.99733 160.043 6.29333 160.331 5.696C160.63 5.09867 161.046 4.64 161.579 4.32C162.123 3.98933 162.763 3.824 163.499 3.824C164.225 3.824 164.849 4.00533 165.371 4.368C165.905 4.73067 166.257 5.232 166.427 5.872L166.267 5.712L166.411 3.968H167.675C167.633 4.27733 167.601 4.592 167.579 4.912C167.558 5.22133 167.547 5.52533 167.547 5.824V11.952C167.547 13.1467 167.238 14.048 166.619 14.656C166.011 15.264 165.115 15.568 163.931 15.568ZM163.739 10.768C164.518 10.768 165.131 10.512 165.579 10C166.027 9.47733 166.251 8.74667 166.251 7.808C166.251 6.86933 166.027 6.144 165.579 5.632C165.131 5.12 164.518 4.864 163.739 4.864C162.971 4.864 162.358 5.12 161.899 5.632C161.441 6.144 161.211 6.86933 161.211 7.808C161.211 8.74667 161.441 9.47733 161.899 10C162.358 10.512 162.971 10.768 163.739 10.768ZM169.916 15.632L169.612 14.56C170.113 14.4427 170.529 14.304 170.86 14.144C171.201 13.9947 171.484 13.792 171.708 13.536C171.932 13.28 172.124 12.96 172.284 12.576L172.7 11.632L172.668 12.176L169.164 3.968H170.572L173.468 11.024H173.052L175.916 3.968H177.276L173.564 12.672C173.351 13.184 173.116 13.6107 172.86 13.952C172.604 14.304 172.327 14.5867 172.028 14.8C171.74 15.024 171.42 15.2 171.068 15.328C170.716 15.456 170.332 15.5573 169.916 15.632ZM188.636 12.144C187.398 12.144 186.364 11.9147 185.532 11.456C184.7 10.9973 184.076 10.336 183.66 9.472C183.244 8.608 183.036 7.57333 183.036 6.368C183.036 5.17333 183.254 4.144 183.692 3.28C184.129 2.416 184.758 1.74933 185.58 1.28C186.401 0.810666 187.393 0.575999 188.556 0.575999C189.377 0.575999 190.086 0.698666 190.684 0.943999C191.292 1.17867 191.836 1.53067 192.316 2L191.82 3.04C191.468 2.73067 191.126 2.48533 190.796 2.304C190.476 2.12267 190.14 1.98933 189.788 1.904C189.436 1.808 189.025 1.76 188.556 1.76C187.222 1.76 186.198 2.16533 185.484 2.976C184.78 3.776 184.428 4.912 184.428 6.384C184.428 7.86667 184.769 9.00267 185.452 9.792C186.145 10.5813 187.217 10.976 188.668 10.976C189.201 10.976 189.708 10.928 190.188 10.832C190.678 10.7253 191.153 10.576 191.612 10.384L191.324 11.104V7.136H188.444V6.096H192.46V11.328C192.001 11.5733 191.42 11.7707 190.716 11.92C190.022 12.0693 189.329 12.144 188.636 12.144ZM195.179 12V5.904C195.179 5.584 195.168 5.25867 195.147 4.928C195.136 4.59733 195.115 4.27733 195.083 3.968H196.331L196.491 5.92L196.267 5.936C196.374 5.456 196.56 5.06133 196.827 4.752C197.094 4.44267 197.408 4.21333 197.771 4.064C198.134 3.904 198.512 3.824 198.907 3.824C199.067 3.824 199.206 3.82933 199.323 3.84C199.451 3.85067 199.568 3.87733 199.675 3.92L199.659 5.072C199.499 5.01867 199.35 4.98667 199.211 4.976C199.083 4.95467 198.934 4.944 198.763 4.944C198.294 4.944 197.883 5.056 197.531 5.28C197.19 5.504 196.928 5.792 196.747 6.144C196.576 6.496 196.491 6.86933 196.491 7.264V12H195.179ZM204.426 12.144C203.658 12.144 202.986 11.9787 202.41 11.648C201.844 11.3067 201.407 10.8267 201.098 10.208C200.788 9.57867 200.634 8.83733 200.634 7.984C200.634 7.12 200.788 6.37867 201.098 5.76C201.407 5.14133 201.844 4.66667 202.41 4.336C202.986 3.99467 203.658 3.824 204.426 3.824C205.204 3.824 205.876 3.99467 206.442 4.336C207.018 4.66667 207.46 5.14133 207.77 5.76C208.09 6.37867 208.25 7.12 208.25 7.984C208.25 8.83733 208.09 9.57867 207.77 10.208C207.46 10.8267 207.018 11.3067 206.442 11.648C205.876 11.9787 205.204 12.144 204.426 12.144ZM204.426 11.088C205.194 11.088 205.802 10.8267 206.25 10.304C206.698 9.77067 206.922 8.99733 206.922 7.984C206.922 6.96 206.692 6.18667 206.234 5.664C205.786 5.13067 205.183 4.864 204.426 4.864C203.668 4.864 203.066 5.13067 202.618 5.664C202.17 6.18667 201.946 6.96 201.946 7.984C201.946 8.99733 202.17 9.77067 202.618 10.304C203.066 10.8267 203.668 11.088 204.426 11.088ZM213.302 12.144C212.353 12.144 211.633 11.8827 211.142 11.36C210.662 10.8373 210.422 10.0373 210.422 8.96V3.968H211.718V8.928C211.718 9.664 211.868 10.208 212.166 10.56C212.465 10.9013 212.929 11.072 213.558 11.072C214.262 11.072 214.828 10.8427 215.254 10.384C215.681 9.92533 215.894 9.312 215.894 8.544V3.968H217.19V12H215.926V10.192H216.134C215.91 10.8107 215.548 11.2907 215.046 11.632C214.556 11.9733 213.974 12.144 213.302 12.144ZM219.905 15.456V5.824C219.905 5.52533 219.889 5.22133 219.857 4.912C219.835 4.592 219.809 4.27733 219.777 3.968H221.025L221.201 5.872H221.009C221.179 5.24267 221.526 4.74667 222.049 4.384C222.571 4.01067 223.195 3.824 223.921 3.824C224.646 3.824 225.27 3.98933 225.793 4.32C226.326 4.65067 226.742 5.12533 227.041 5.744C227.339 6.36267 227.489 7.10933 227.489 7.984C227.489 8.848 227.339 9.58933 227.041 10.208C226.753 10.8267 226.342 11.3067 225.809 11.648C225.275 11.9787 224.646 12.144 223.921 12.144C223.206 12.144 222.587 11.9627 222.065 11.6C221.542 11.2373 221.195 10.7413 221.025 10.112H221.201V15.456H219.905ZM223.665 11.088C224.433 11.088 225.041 10.8267 225.489 10.304C225.947 9.77067 226.177 8.99733 226.177 7.984C226.177 6.96 225.947 6.18667 225.489 5.664C225.041 5.13067 224.433 4.864 223.665 4.864C222.907 4.864 222.299 5.13067 221.841 5.664C221.393 6.18667 221.169 6.96 221.169 7.984C221.169 8.99733 221.393 9.77067 221.841 10.304C222.299 10.8267 222.907 11.088 223.665 11.088ZM234.214 12V0.719999H235.542V10.848H241.238V12H234.214ZM243.133 12V0.719999H244.461V10.848H250.157V12H243.133ZM256.386 12.144C255.255 12.144 254.295 11.9093 253.506 11.44C252.716 10.9707 252.108 10.304 251.682 9.44C251.266 8.576 251.058 7.54667 251.058 6.352C251.058 5.15733 251.266 4.13333 251.682 3.28C252.108 2.416 252.716 1.74933 253.506 1.28C254.295 0.810666 255.255 0.575999 256.386 0.575999C257.186 0.575999 257.9 0.698666 258.53 0.943999C259.159 1.18933 259.708 1.54667 260.178 2.016L259.682 3.072C259.17 2.624 258.663 2.29867 258.162 2.096C257.66 1.88267 257.074 1.776 256.402 1.776C255.111 1.776 254.13 2.176 253.458 2.976C252.786 3.776 252.45 4.90133 252.45 6.352C252.45 7.80267 252.786 8.93333 253.458 9.744C254.13 10.544 255.111 10.944 256.402 10.944C257.074 10.944 257.66 10.8427 258.162 10.64C258.663 10.4267 259.17 10.0907 259.682 9.632L260.178 10.704C259.708 11.1627 259.159 11.52 258.53 11.776C257.9 12.0213 257.186 12.144 256.386 12.144ZM262.367 12V10.368H263.999V12H262.367ZM123.894 40L128.87 28.72H130.022L135.078 40H133.702L132.294 36.784L132.886 37.12H125.99L126.63 36.784L125.254 40H123.894ZM129.43 30.24L126.838 36.32L126.454 36.032H132.406L132.118 36.32L129.462 30.24H129.43ZM136.836 40V28.224H138.132V40H136.836ZM140.848 40V28.224H142.144V40H140.848ZM149.201 40V33.904C149.201 33.584 149.19 33.2587 149.169 32.928C149.158 32.5973 149.137 32.2773 149.105 31.968H150.353L150.513 33.92L150.289 33.936C150.395 33.456 150.582 33.0613 150.849 32.752C151.115 32.4427 151.43 32.2133 151.793 32.064C152.155 31.904 152.534 31.824 152.929 31.824C153.089 31.824 153.227 31.8293 153.345 31.84C153.473 31.8507 153.59 31.8773 153.697 31.92L153.681 33.072C153.521 33.0187 153.371 32.9867 153.233 32.976C153.105 32.9547 152.955 32.944 152.785 32.944C152.315 32.944 151.905 33.056 151.553 33.28C151.211 33.504 150.95 33.792 150.769 34.144C150.598 34.496 150.513 34.8693 150.513 35.264V40H149.201ZM155.245 40V31.968H156.541V40H155.245ZM155.085 30.144V28.688H156.685V30.144H155.085ZM162.794 43.568C162.1 43.568 161.46 43.4827 160.874 43.312C160.287 43.1413 159.759 42.88 159.29 42.528L159.674 41.552C160.004 41.7867 160.33 41.9733 160.65 42.112C160.97 42.2507 161.3 42.352 161.642 42.416C161.983 42.4907 162.346 42.528 162.73 42.528C163.519 42.528 164.116 42.32 164.522 41.904C164.927 41.488 165.13 40.896 165.13 40.128V37.776H165.29C165.119 38.4053 164.767 38.9067 164.234 39.28C163.7 39.6427 163.076 39.824 162.362 39.824C161.626 39.824 160.986 39.664 160.442 39.344C159.908 39.0133 159.492 38.5493 159.194 37.952C158.906 37.344 158.762 36.6293 158.762 35.808C158.762 34.9973 158.906 34.2933 159.194 33.696C159.492 33.0987 159.908 32.64 160.442 32.32C160.986 31.9893 161.626 31.824 162.362 31.824C163.087 31.824 163.711 32.0053 164.234 32.368C164.767 32.7307 165.119 33.232 165.29 33.872L165.13 33.712L165.274 31.968H166.538C166.495 32.2773 166.463 32.592 166.442 32.912C166.42 33.2213 166.41 33.5253 166.41 33.824V39.952C166.41 41.1467 166.1 42.048 165.482 42.656C164.874 43.264 163.978 43.568 162.794 43.568ZM162.602 38.768C163.38 38.768 163.994 38.512 164.442 38C164.89 37.4773 165.114 36.7467 165.114 35.808C165.114 34.8693 164.89 34.144 164.442 33.632C163.994 33.12 163.38 32.864 162.602 32.864C161.834 32.864 161.22 33.12 160.762 33.632C160.303 34.144 160.074 34.8693 160.074 35.808C160.074 36.7467 160.303 37.4773 160.762 38C161.22 38.512 161.834 38.768 162.602 38.768ZM169.098 40V28.224H170.394V33.744H170.186C170.41 33.1147 170.784 32.64 171.306 32.32C171.84 31.9893 172.453 31.824 173.146 31.824C174.106 31.824 174.821 32.0853 175.29 32.608C175.76 33.12 175.994 33.8987 175.994 34.944V40H174.698V35.024C174.698 34.2773 174.549 33.7333 174.25 33.392C173.962 33.0507 173.493 32.88 172.842 32.88C172.096 32.88 171.498 33.1093 171.05 33.568C170.613 34.0267 170.394 34.6293 170.394 35.376V40H169.098ZM181.521 40.144C180.732 40.144 180.129 39.92 179.713 39.472C179.297 39.0133 179.089 38.3253 179.089 37.408V32.976H177.521V31.968H179.089V29.776L180.385 29.408V31.968H182.689V32.976H180.385V37.264C180.385 37.904 180.492 38.3627 180.705 38.64C180.929 38.9067 181.26 39.04 181.697 39.04C181.9 39.04 182.081 39.024 182.241 38.992C182.401 38.9493 182.545 38.9013 182.673 38.848V39.936C182.524 40 182.343 40.048 182.129 40.08C181.927 40.1227 181.724 40.144 181.521 40.144ZM187.139 40.144C186.499 40.144 185.902 40.0587 185.347 39.888C184.792 39.7067 184.334 39.456 183.971 39.136L184.419 38.224C184.814 38.5333 185.24 38.7627 185.699 38.912C186.168 39.0613 186.654 39.136 187.155 39.136C187.795 39.136 188.275 39.024 188.595 38.8C188.926 38.5653 189.091 38.2453 189.091 37.84C189.091 37.5307 188.984 37.2853 188.771 37.104C188.568 36.912 188.232 36.7627 187.763 36.656L186.275 36.352C185.592 36.2027 185.08 35.952 184.739 35.6C184.398 35.2373 184.227 34.7787 184.227 34.224C184.227 33.7547 184.35 33.344 184.595 32.992C184.84 32.6293 185.198 32.3467 185.667 32.144C186.136 31.9307 186.686 31.824 187.315 31.824C187.902 31.824 188.44 31.9147 188.931 32.096C189.432 32.2667 189.848 32.5173 190.179 32.848L189.715 33.744C189.395 33.4347 189.027 33.2053 188.611 33.056C188.206 32.896 187.784 32.816 187.347 32.816C186.718 32.816 186.243 32.944 185.923 33.2C185.614 33.4453 185.459 33.7707 185.459 34.176C185.459 34.4853 185.555 34.7413 185.747 34.944C185.95 35.136 186.259 35.28 186.675 35.376L188.163 35.68C188.888 35.84 189.427 36.0907 189.779 36.432C190.142 36.7627 190.323 37.2107 190.323 37.776C190.323 38.256 190.19 38.6773 189.923 39.04C189.656 39.392 189.283 39.664 188.803 39.856C188.334 40.048 187.779 40.144 187.139 40.144ZM196.944 40V33.904C196.944 33.584 196.934 33.2587 196.912 32.928C196.902 32.5973 196.88 32.2773 196.848 31.968H198.096L198.256 33.92L198.032 33.936C198.139 33.456 198.326 33.0613 198.592 32.752C198.859 32.4427 199.174 32.2133 199.536 32.064C199.899 31.904 200.278 31.824 200.672 31.824C200.832 31.824 200.971 31.8293 201.088 31.84C201.216 31.8507 201.334 31.8773 201.44 31.92L201.424 33.072C201.264 33.0187 201.115 32.9867 200.976 32.976C200.848 32.9547 200.699 32.944 200.528 32.944C200.059 32.944 199.648 33.056 199.296 33.28C198.955 33.504 198.694 33.792 198.512 34.144C198.342 34.496 198.256 34.8693 198.256 35.264V40H196.944ZM206.463 40.144C205.205 40.144 204.213 39.7813 203.487 39.056C202.762 38.32 202.399 37.3013 202.399 36C202.399 35.1573 202.559 34.4267 202.879 33.808C203.199 33.1787 203.647 32.6933 204.223 32.352C204.799 32 205.461 31.824 206.207 31.824C206.943 31.824 207.562 31.9787 208.063 32.288C208.565 32.5973 208.949 33.04 209.215 33.616C209.482 34.1813 209.615 34.8533 209.615 35.632V36.112H203.391V35.296H208.767L208.495 35.504C208.495 34.6507 208.303 33.984 207.919 33.504C207.535 33.024 206.965 32.784 206.207 32.784C205.407 32.784 204.783 33.0667 204.335 33.632C203.887 34.1867 203.663 34.9387 203.663 35.888V36.032C203.663 37.0347 203.909 37.7973 204.399 38.32C204.901 38.832 205.599 39.088 206.495 39.088C206.975 39.088 207.423 39.0187 207.839 38.88C208.266 38.7307 208.671 38.4907 209.055 38.16L209.503 39.072C209.151 39.4133 208.703 39.68 208.159 39.872C207.626 40.0533 207.061 40.144 206.463 40.144ZM214.47 40.144C213.83 40.144 213.233 40.0587 212.678 39.888C212.124 39.7067 211.665 39.456 211.302 39.136L211.75 38.224C212.145 38.5333 212.572 38.7627 213.03 38.912C213.5 39.0613 213.985 39.136 214.486 39.136C215.126 39.136 215.606 39.024 215.926 38.8C216.257 38.5653 216.422 38.2453 216.422 37.84C216.422 37.5307 216.316 37.2853 216.102 37.104C215.9 36.912 215.564 36.7627 215.094 36.656L213.606 36.352C212.924 36.2027 212.412 35.952 212.07 35.6C211.729 35.2373 211.558 34.7787 211.558 34.224C211.558 33.7547 211.681 33.344 211.926 32.992C212.172 32.6293 212.529 32.3467 212.998 32.144C213.468 31.9307 214.017 31.824 214.646 31.824C215.233 31.824 215.772 31.9147 216.262 32.096C216.764 32.2667 217.18 32.5173 217.51 32.848L217.046 33.744C216.726 33.4347 216.358 33.2053 215.942 33.056C215.537 32.896 215.116 32.816 214.678 32.816C214.049 32.816 213.574 32.944 213.254 33.2C212.945 33.4453 212.79 33.7707 212.79 34.176C212.79 34.4853 212.886 34.7413 213.078 34.944C213.281 35.136 213.59 35.28 214.006 35.376L215.494 35.68C216.22 35.84 216.758 36.0907 217.11 36.432C217.473 36.7627 217.654 37.2107 217.654 37.776C217.654 38.256 217.521 38.6773 217.254 39.04C216.988 39.392 216.614 39.664 216.134 39.856C215.665 40.048 215.11 40.144 214.47 40.144ZM223.504 40.144C222.245 40.144 221.253 39.7813 220.528 39.056C219.803 38.32 219.44 37.3013 219.44 36C219.44 35.1573 219.6 34.4267 219.92 33.808C220.24 33.1787 220.688 32.6933 221.264 32.352C221.84 32 222.501 31.824 223.248 31.824C223.984 31.824 224.603 31.9787 225.104 32.288C225.605 32.5973 225.989 33.04 226.256 33.616C226.523 34.1813 226.656 34.8533 226.656 35.632V36.112H220.432V35.296H225.808L225.536 35.504C225.536 34.6507 225.344 33.984 224.96 33.504C224.576 33.024 224.005 32.784 223.248 32.784C222.448 32.784 221.824 33.0667 221.376 33.632C220.928 34.1867 220.704 34.9387 220.704 35.888V36.032C220.704 37.0347 220.949 37.7973 221.44 38.32C221.941 38.832 222.64 39.088 223.536 39.088C224.016 39.088 224.464 39.0187 224.88 38.88C225.307 38.7307 225.712 38.4907 226.096 38.16L226.544 39.072C226.192 39.4133 225.744 39.68 225.2 39.872C224.667 40.0533 224.101 40.144 223.504 40.144ZM228.807 40V33.904C228.807 33.584 228.796 33.2587 228.775 32.928C228.764 32.5973 228.743 32.2773 228.711 31.968H229.959L230.119 33.92L229.895 33.936C230.002 33.456 230.188 33.0613 230.455 32.752C230.722 32.4427 231.036 32.2133 231.399 32.064C231.762 31.904 232.14 31.824 232.535 31.824C232.695 31.824 232.834 31.8293 232.951 31.84C233.079 31.8507 233.196 31.8773 233.303 31.92L233.287 33.072C233.127 33.0187 232.978 32.9867 232.839 32.976C232.711 32.9547 232.562 32.944 232.391 32.944C231.922 32.944 231.511 33.056 231.159 33.28C230.818 33.504 230.556 33.792 230.375 34.144C230.204 34.496 230.119 34.8693 230.119 35.264V40H228.807ZM237.704 40L234.264 31.968H235.672L238.552 39.04H238.12L241.032 31.968H242.376L238.936 40H237.704ZM247.495 40.144C246.236 40.144 245.244 39.7813 244.519 39.056C243.793 38.32 243.431 37.3013 243.431 36C243.431 35.1573 243.591 34.4267 243.911 33.808C244.231 33.1787 244.679 32.6933 245.255 32.352C245.831 32 246.492 31.824 247.239 31.824C247.975 31.824 248.593 31.9787 249.095 32.288C249.596 32.5973 249.98 33.04 250.247 33.616C250.513 34.1813 250.647 34.8533 250.647 35.632V36.112H244.423V35.296H249.799L249.527 35.504C249.527 34.6507 249.335 33.984 248.951 33.504C248.567 33.024 247.996 32.784 247.239 32.784C246.439 32.784 245.815 33.0667 245.367 33.632C244.919 34.1867 244.695 34.9387 244.695 35.888V36.032C244.695 37.0347 244.94 37.7973 245.431 38.32C245.932 38.832 246.631 39.088 247.527 39.088C248.007 39.088 248.455 39.0187 248.871 38.88C249.297 38.7307 249.703 38.4907 250.087 38.16L250.535 39.072C250.183 39.4133 249.735 39.68 249.191 39.872C248.657 40.0533 248.092 40.144 247.495 40.144ZM255.87 40.144C255.166 40.144 254.547 39.9787 254.014 39.648C253.48 39.3067 253.064 38.8267 252.766 38.208C252.478 37.5893 252.334 36.848 252.334 35.984C252.334 35.1093 252.478 34.3627 252.766 33.744C253.064 33.1253 253.48 32.6507 254.014 32.32C254.547 31.9893 255.166 31.824 255.87 31.824C256.595 31.824 257.219 32.0053 257.742 32.368C258.275 32.7307 258.632 33.2213 258.814 33.84H258.622V28.224H259.918V40H258.638V38.08H258.814C258.643 38.72 258.291 39.2267 257.758 39.6C257.224 39.9627 256.595 40.144 255.87 40.144ZM256.142 39.088C256.899 39.088 257.507 38.8267 257.966 38.304C258.424 37.7707 258.654 36.9973 258.654 35.984C258.654 34.96 258.424 34.1867 257.966 33.664C257.507 33.1307 256.899 32.864 256.142 32.864C255.384 32.864 254.776 33.1307 254.318 33.664C253.87 34.1867 253.646 34.96 253.646 35.984C253.646 36.9973 253.87 37.7707 254.318 38.304C254.776 38.8267 255.384 39.088 256.142 39.088ZM262.367 40V38.368H263.999V40H262.367Z" fill="white"/>
</svg>
