<svg width="16" height="16" viewBox="0 0 16 16" fill="none" xmlns="http://www.w3.org/2000/svg">
<path d="M9.33333 7.33301H6.66667C6.31304 7.33301 5.97391 7.19253 5.72386 6.94248C5.47381 6.69243 5.33333 6.3533 5.33333 5.99967C5.33333 5.64605 5.47381 5.30691 5.72386 5.05687C5.97391 4.80682 6.31304 4.66634 6.66667 4.66634H10C10.1768 4.66634 10.3464 4.73658 10.4714 4.8616C10.5964 4.98663 10.6667 5.1562 10.6667 5.33301C10.6667 5.50982 10.7369 5.67939 10.8619 5.80441C10.987 5.92944 11.1565 5.99967 11.3333 5.99967C11.5101 5.99967 11.6797 5.92944 11.8047 5.80441C11.9298 5.67939 12 5.50982 12 5.33301C12 4.80257 11.7893 4.29387 11.4142 3.91879C11.0391 3.54372 10.5304 3.33301 10 3.33301H8.66667V1.99967C8.66667 1.82286 8.59643 1.65329 8.4714 1.52827C8.34638 1.40325 8.17681 1.33301 8 1.33301C7.82319 1.33301 7.65362 1.40325 7.5286 1.52827C7.40357 1.65329 7.33333 1.82286 7.33333 1.99967V3.33301H6.66667C5.95942 3.33301 5.28115 3.61396 4.78105 4.11406C4.28095 4.61415 4 5.29243 4 5.99967C4 6.70692 4.28095 7.3852 4.78105 7.88529C5.28115 8.38539 5.95942 8.66634 6.66667 8.66634H9.33333C9.68696 8.66634 10.0261 8.80682 10.2761 9.05687C10.5262 9.30691 10.6667 9.64605 10.6667 9.99967C10.6667 10.3533 10.5262 10.6924 10.2761 10.9425C10.0261 11.1925 9.68696 11.333 9.33333 11.333H6C5.82319 11.333 5.65362 11.2628 5.5286 11.1377C5.40357 11.0127 5.33333 10.8432 5.33333 10.6663C5.33333 10.4895 5.2631 10.32 5.13807 10.1949C5.01305 10.0699 4.84348 9.99967 4.66667 9.99967C4.48986 9.99967 4.32029 10.0699 4.19526 10.1949C4.07024 10.32 4 10.4895 4 10.6663C4 11.1968 4.21071 11.7055 4.58579 12.0806C4.96086 12.4556 5.46957 12.6663 6 12.6663H7.33333V13.9997C7.33333 14.1765 7.40357 14.3461 7.5286 14.4711C7.65362 14.5961 7.82319 14.6663 8 14.6663C8.17681 14.6663 8.34638 14.5961 8.4714 14.4711C8.59643 14.3461 8.66667 14.1765 8.66667 13.9997V12.6663H9.33333C10.0406 12.6663 10.7189 12.3854 11.219 11.8853C11.719 11.3852 12 10.7069 12 9.99967C12 9.29243 11.719 8.61415 11.219 8.11406C10.7189 7.61396 10.0406 7.33301 9.33333 7.33301Z" fill="#26266D"/>
</svg>
